<mxfile host="app.diagrams.net" modified="2023-05-25T10:46:27.593Z" agent="Mozilla/5.0 (Macintosh; Intel Mac OS X 10_15_7) AppleWebKit/537.36 (KHTML, like Gecko) Chrome/112.0.0.0 Safari/537.36" version="21.3.3" etag="35RCjEUQZsX_Ai0XBHFH" type="github">
  <diagram name="Page-1" id="B7hvcuTRub4k18Qo8NEn">
    <mxGraphModel>
      <root>
        <mxCell id="0" />
        <mxCell id="1" parent="0" />
      </root>
    </mxGraphModel>
  </diagram>
</mxfile>
